<svg xmlns="http://www.w3.org/2000/svg" viewBox="0 0 128 128"><path d="M18.865 84.509c0-11.369 3.527-19.84 11.164-26.814 8.935-8.161 14.04-9.672 35.505-10.51l19.89-.777v-12.24l-20.158-.427c-19.83-.42-20.236-.498-24.864-4.822-6.297-5.379-4.706-14.057-4.706-21.528h25.52c26.61 0 33.313 1.153 40.037 6.885 7.692 6.558 7.889 8.02 7.889 58.833v47.51H86.375l-.475-5.62c-.26-3.091-.407-5.429-2.196-6.185-1.722-.727-4.24 2.662-8.158 5.62-5.47 4.129-6.729 6.18-16.64 6.053-36.927-.477-40.04-28.091-40.04-35.978zm63.276-12.94c-4.941-1.879-25.559-1.606-31.402.415-3.68 1.273-9.162 7.146-8.922 12.36s3.495 11.994 8.002 11.886c0 0 32.022 1.013 35.2-.792 1.676-.952 4.493-21.066-2.878-23.87z"/></svg>