<?xml version="1.0" encoding="UTF-8" standalone="no"?>
<!-- Created with Inkscape (http://www.inkscape.org/) -->

<svg
   width="192"
   height="192"
   version="1.1"
   viewBox="0 0 192 192"
   id="svg114"
   sodipodi:docname="logo-monochrome.svg"
   inkscape:version="1.2.2 (b0a84865, 2022-12-01)"
   xmlns:inkscape="http://www.inkscape.org/namespaces/inkscape"
   xmlns:sodipodi="http://sodipodi.sourceforge.net/DTD/sodipodi-0.dtd"
   xmlns="http://www.w3.org/2000/svg"
   xmlns:svg="http://www.w3.org/2000/svg">
  <sodipodi:namedview
     id="namedview116"
     pagecolor="#ffffff"
     bordercolor="#000000"
     borderopacity="0.25"
     inkscape:showpageshadow="2"
     inkscape:pageopacity="0.0"
     inkscape:pagecheckerboard="0"
     inkscape:deskcolor="#d1d1d1"
     showgrid="false"
     inkscape:zoom="3.4375001"
     inkscape:cx="90.618179"
     inkscape:cy="82.181816"
     inkscape:window-width="1390"
     inkscape:window-height="1205"
     inkscape:window-x="2240"
     inkscape:window-y="25"
     inkscape:window-maximized="0"
     inkscape:current-layer="svg114" />
  <defs
     id="defs32">
    <linearGradient
       id="linearGradient6496"
       x1="-3.1957"
       x2="218.03"
       y1="163.19"
       y2="150.37"
       gradientTransform="matrix(1.0081,0,0,1.0209,-0.26629,-195.51)"
       gradientUnits="userSpaceOnUse">
      <stop
         stop-color="#e1ccc0"
         offset="0"
         id="stop2" />
      <stop
         stop-color="#f6cbb4"
         offset=".034911"
         id="stop4" />
      <stop
         stop-color="#fd8178"
         offset=".25"
         id="stop6" />
      <stop
         stop-color="#aa586e"
         offset=".5"
         id="stop8" />
      <stop
         stop-color="#3e2458"
         offset=".75"
         id="stop10" />
      <stop
         stop-color="#191841"
         offset="1"
         id="stop12" />
    </linearGradient>
    <linearGradient
       id="linearGradient14413"
       x1="118.2"
       x2="74.413"
       y1="168.5"
       y2="90.935"
       gradientTransform="translate(0.02051,-4.4115)"
       gradientUnits="userSpaceOnUse">
      <stop
         stop-color="#0a2844"
         offset="0"
         id="stop15" />
      <stop
         stop-color="#14334f"
         offset=".2333"
         id="stop17" />
      <stop
         stop-color="#5d868a"
         offset="1"
         id="stop19" />
    </linearGradient>
    <linearGradient
       id="linearGradient21272"
       x1="78.733"
       x2="122.83"
       y1="52.368"
       y2="86.376"
       gradientTransform="translate(0.02051,-4.4115)"
       gradientUnits="userSpaceOnUse">
      <stop
         stop-color="#80a6a3"
         offset="0"
         id="stop22"
         style="stop-color:#80a6a3;stop-opacity:0.49773753;" />
      <stop
         stop-color="#042846"
         offset="1"
         id="stop24" />
    </linearGradient>
    <linearGradient
       id="linearGradient29567"
       x1="86.425"
       x2="104.37"
       y1="105.61"
       y2="140.4"
       gradientUnits="userSpaceOnUse"
       gradientTransform="translate(0,-4)">
      <stop
         stop-color="#e97e7e"
         offset="0"
         id="stop27" />
      <stop
         stop-color="#db656e"
         offset="1"
         id="stop29" />
    </linearGradient>
  </defs>
  <g
     id="g1168"
     transform="translate(4.65e-4,-7.2812566)">
    <path
       d="m 65.554,85.54 c -7.2128,0 -13.02,6.5541 -13.02,14.695 v 29.096 c 0,0.5292 0.02831,1.05 0.07617,1.5644 v 7.2598 c 0,15.3 18.095,27.617 40.572,27.617 h 5.7109 c 22.477,0 40.572,-12.317 40.572,-27.617 v -21.252 c 0,-0.54985 -0.0301,-1.095 -0.0762,-1.6367 v -15.031 c 0,-8.1412 -5.8068,-14.695 -13.02,-14.695 z"
       fill="url(#linearGradient14413)"
       stroke="#05111f"
       stroke-linejoin="round"
       stroke-width="7.446"
       id="path36"
       style="fill:none" />
    <path
       d="m 96,95.252 c -9.3667,0 -17.24,7.378 -17.24,16.619 0,4.1407 1.5843,7.9039 4.1719,10.801 -1.2522,2.1273 -1.9766,4.5888 -1.9766,7.2207 0,8.1174 6.8577,14.631 15.01,14.631 8.1521,0 15.012,-6.5134 15.012,-14.631 0,-2.6126 -0.71364,-5.0572 -1.9492,-7.1738 2.6122,-2.903 4.2129,-6.6848 4.2129,-10.848 0,-9.2411 -7.8736,-16.619 -17.24,-16.619 z m 0,8.2832 c 5.1029,0 8.959,3.7938 8.959,8.3359 0,1.6957 -0.54229,3.2832 -2.3193,5.4402 -1.777,2.1571 -3.921,2.5637 -3.921,2.5637 l 2.9882,7.9384 c 0.22845,0.47353 0.41023,1.2573 0.41023,2.0792 0,3.1505 -2.617,5.7715 -6.1524,5.7715 -3.5353,0 -6.1504,-2.621 -6.1504,-5.7715 0,-0.82976 0.18576,-1.6198 0.36534,-2.098 0.0513,0.0158 2.9315,-7.9196 2.9315,-7.9196 0,0 -2.0914,-0.40088 -3.7437,-2.3832 -1.6523,-1.9824 -2.3266,-3.7339 -2.3266,-5.6207 0,-4.5421 3.8561,-8.3359 8.959,-8.3359 z"
       color="#000000"
       fill="#05111f"
       stroke-linecap="square"
       stroke-linejoin="round"
       style="-inkscape-stroke:none;paint-order:stroke fill markers"
       id="path44" />
    <g
       id="g82"
       style="fill:#05111f;fill-opacity:1">
      <circle
         cx="68.960999"
         cy="102.86"
         r="3.75"
         fill="#05111f"
         style="fill:#05111f;fill-opacity:1;paint-order:stroke fill markers"
         id="circle72" />
      <circle
         cx="68.960999"
         cy="119.65"
         r="4.25"
         fill="#e3f9f0"
         style="fill:#05111f;fill-opacity:1;paint-order:stroke fill markers"
         id="circle74" />
      <circle
         cx="68.960999"
         cy="133.17999"
         r="3.75"
         fill="#05111f"
         style="fill:#05111f;fill-opacity:1;paint-order:stroke fill markers"
         id="circle76" />
      <circle
         cx="123.51"
         cy="102.86"
         r="3.75"
         fill="#05111f"
         style="fill:#05111f;fill-opacity:1;paint-order:stroke fill markers"
         id="circle78" />
      <circle
         cx="123.51"
         cy="119.65"
         r="4.25"
         fill="#082341"
         style="fill:#05111f;fill-opacity:1;paint-order:stroke fill markers"
         id="circle80" />
    </g>
    <path
       id="path1098"
       style="color:#000000;fill:#05111f;stroke-linecap:square;stroke-linejoin:round;-inkscape-stroke:none;paint-order:stroke fill markers"
       d="M 96.41406,37.068359 C 79.630564,37.199366 62.919922,51.04231 62.919922,72.904297 v 8.841797 c -2.87e-4,4.112363 3.332949,7.446474 7.445312,7.447265 h 4.900391 c 4.112363,-7.91e-4 7.445599,-3.334902 7.445313,-7.447265 v -8.841797 c 0,-6.396361 1.902024,-10.006922 4.361332,-12.388672 2.4593,-2.381751 5.86079,-3.625966 9.49804,-3.654297 3.53357,-0.02758 6.92854,1.222979 9.36328,3.548828 2.4795,2.368596 4.33789,5.717606 4.33789,12.007813 v 9.330078 c 7.9e-4,4.112365 3.3349,7.445602 7.44727,7.445312 h 4.90039 c 4.1116,-7.92e-4 7.44452,-3.333712 7.44531,-7.445312 v -9.330078 c 0,-10.859067 -3.9881,-20.136502 -10.45898,-26.31836 -6.43572,-6.14826 -14.88459,-9.096071 -23.19141,-9.03125 z m 0.0586,7.136719 c 6.50999,-0.0508 13.05584,2.254755 17.99023,6.96875 4.9344,4.713995 8.15625,11.833556 8.15625,20.935547 v 9.330078 h -4.90039 v -9.330078 c 0,-7.969792 -2.69663,-13.624982 -6.64063,-17.392578 -3.94399,-3.767596 -9.23811,-5.652918 -14.5664,-5.611328 -10.655986,0.083 -21.246095,7.42525 -21.246095,23.490234 V 81.4375 h -4.900391 v -8.841797 c 0,-18.314982 13.08744,-28.288995 26.107426,-28.390625 z" />
  </g>
</svg>
