<?xml version="1.0" encoding="UTF-8"?>
<!-- Created with Inkscape (http://www.inkscape.org/) -->
<svg width="192" height="192" version="1.1" viewBox="0 0 192 192" xmlns="http://www.w3.org/2000/svg" xmlns:xlink="http://www.w3.org/1999/xlink">
 <defs>
  <linearGradient id="linearGradient6496" x1="-3.1957" x2="218.03" y1="163.19" y2="150.37" gradientTransform="matrix(1.0081 0 0 1.0209 -.26629 -195.51)" gradientUnits="userSpaceOnUse">
   <stop stop-color="#e1ccc0" offset="0"/>
   <stop stop-color="#f6cbb4" offset=".034911"/>
   <stop stop-color="#fd8178" offset=".25"/>
   <stop stop-color="#aa586e" offset=".5"/>
   <stop stop-color="#3e2458" offset=".75"/>
   <stop stop-color="#191841" offset="1"/>
  </linearGradient>
  <linearGradient id="linearGradient14413" x1="118.2" x2="74.413" y1="168.5" y2="90.935" gradientTransform="translate(.02051 -4.4115)" gradientUnits="userSpaceOnUse">
   <stop stop-color="#0a2844" offset="0"/>
   <stop stop-color="#14334f" offset=".2333"/>
   <stop stop-color="#5d868a" offset="1"/>
  </linearGradient>
  <linearGradient id="linearGradient21272" x1="78.733" x2="122.83" y1="52.368" y2="86.376" gradientTransform="translate(.02051 -4.4115)" gradientUnits="userSpaceOnUse">
   <stop stop-color="#80a6a3" offset="0"/>
   <stop stop-color="#042846" offset="1"/>
  </linearGradient>
  <linearGradient id="linearGradient29567" x1="86.425" x2="104.37" y1="105.61" y2="140.4" gradientUnits="userSpaceOnUse">
   <stop stop-color="#e97e7e" offset="0"/>
   <stop stop-color="#db656e" offset="1"/>
  </linearGradient>
 </defs>
 <g>
  <rect transform="rotate(90)" y="-192" width="192" height="192" fill="url(#linearGradient6496)"/>
  <path d="m65.554 85.54c-7.2128 0-13.02 6.5541-13.02 14.695v29.096c0 0.5292 0.02831 1.05 0.07617 1.5644v7.2598c0 15.3 18.095 27.617 40.572 27.617h5.7109c22.477 0 40.572-12.317 40.572-27.617v-21.252c0-0.54985-0.0301-1.095-0.0762-1.6367v-15.031c0-8.1412-5.8068-14.695-13.02-14.695z" fill="url(#linearGradient14413)" stroke="#05111f" stroke-linejoin="round" stroke-width="7.446"/>
  <path d="m96.472 44.481c-13.02 0.10163-26.107 10.076-26.107 28.391v8.8418h4.9004v-8.8418c0-16.065 10.59-23.407 21.246-23.49 5.3283-0.04159 10.622 1.8437 14.566 5.6113s6.6406 9.4212 6.6406 17.391v9.3301h4.9004v-9.3301c0-9.102-3.2218-16.22-8.1562-20.934s-11.48-7.0196-17.99-6.9688z" color="#000000" fill="url(#linearGradient21272)" stroke="#05111f" stroke-linecap="square" stroke-linejoin="round" stroke-width="14.892" style="paint-order:stroke fill markers"/>
 </g>
 <g transform="translate(0,-4)">
  <ellipse cx="96.253" cy="123.4" rx="11.388" ry="19.656" fill="url(#linearGradient29567)" style="paint-order:stroke fill markers"/>
  <path d="m96 99.252c-9.3667 0-17.24 7.378-17.24 16.619 0 4.1407 1.5843 7.9039 4.1719 10.801-1.2522 2.1273-1.9766 4.5888-1.9766 7.2207 0 8.1174 6.8577 14.631 15.01 14.631 8.1521 0 15.012-6.5134 15.012-14.631 0-2.6126-0.71364-5.0572-1.9492-7.1738 2.6122-2.903 4.2129-6.6848 4.2129-10.848 0-9.2411-7.8736-16.619-17.24-16.619zm0 8.2832c5.1029 0 8.959 3.7938 8.959 8.3359 0 1.6957-0.54229 3.2832-2.3193 5.4402-1.777 2.1571-3.921 2.5637-3.921 2.5637l2.9882 7.9384c0.22845 0.47353 0.41023 1.2573 0.41023 2.0792 0 3.1505-2.617 5.7715-6.1524 5.7715-3.5353 0-6.1504-2.621-6.1504-5.7715 0-0.82976 0.18576-1.6198 0.36534-2.098 0.0513 0.0158 2.9315-7.9196 2.9315-7.9196s-2.0914-0.40088-3.7437-2.3832c-1.6523-1.9824-2.3266-3.7339-2.3266-5.6207 0-4.5421 3.8561-8.3359 8.959-8.3359z" color="#000000" fill="#05111f" stroke-linecap="square" stroke-linejoin="round" style="-inkscape-stroke:none;paint-order:stroke fill markers"/>
 </g>
 <g fill="#05111f">
  <circle cx="96.125" cy="71.14" r="3.875" style="paint-order:stroke fill markers"/>
  <circle cx="44.834" cy="65.773" r="3.875" style="paint-order:stroke fill markers"/>
  <circle cx="57.786" cy="39.676" r="2.875" style="paint-order:stroke fill markers"/>
  <circle cx="96" cy="22.676" r="1.875" style="paint-order:stroke fill markers"/>
 </g>
 <g fill="none" stroke="#05111f" stroke-linecap="round" stroke-linejoin="round" stroke-width="6.75">
  <path d="m53.598 91.855h-9.8913" style="paint-order:stroke fill markers"/>
  <path d="m38.825 102.73c-13.322-3.3616-12.562-26.855 9.7444-23.877" style="paint-order:stroke fill markers"/>
  <path d="m42.134 126.13h9.8913" style="paint-order:stroke fill markers"/>
  <path d="m17.762 118.93h12.556" style="paint-order:stroke fill markers"/>
  <path d="m-1.8659 126.13h9.8913" style="paint-order:stroke fill markers"/>
  <path d="m13.398 136.93h20.724" style="paint-order:stroke fill markers"/>
 </g>
 <g>
  <circle cx="68.961" cy="102.86" r="3.75" fill="#05111f" style="paint-order:stroke fill markers"/>
  <circle cx="68.961" cy="119.65" r="4.25" fill="#e3f9f0" style="paint-order:stroke fill markers"/>
  <circle cx="68.961" cy="133.18" r="3.75" fill="#05111f" style="paint-order:stroke fill markers"/>
  <circle cx="123.51" cy="102.86" r="3.75" fill="#05111f" style="paint-order:stroke fill markers"/>
  <circle cx="123.51" cy="119.65" r="4.25" fill="#082341" style="paint-order:stroke fill markers"/>
 </g>
 <g fill="#05111f">
  <circle cx="123.51" cy="133.18" r="3.75" style="paint-order:stroke fill markers"/>
  <circle cx="40.057" cy="170.11" r="1.875" style="paint-order:stroke fill markers"/>
  <circle cx="21.806" cy="154.36" r="2.875" style="paint-order:stroke fill markers"/>
  <circle transform="scale(-1,1)" cx="-147.86" cy="65.805" r="3.875" style="paint-order:stroke fill markers"/>
  <circle transform="scale(-1,1)" cx="-134.91" cy="39.708" r="2.875" style="paint-order:stroke fill markers"/>
 </g>
 <g fill="none" stroke="#05111f" stroke-linecap="round" stroke-linejoin="round" stroke-width="6.75">
  <path d="m139.1 91.887h9.8913" style="paint-order:stroke fill markers"/>
  <path d="m153.87 102.76c13.322-3.3616 12.562-26.855-9.7444-23.877" style="paint-order:stroke fill markers"/>
  <path d="m150.56 126.16h-9.8913" style="paint-order:stroke fill markers"/>
  <path d="m174.93 118.96h-12.556" style="paint-order:stroke fill markers"/>
  <path d="m194.56 126.16h-9.8913" style="paint-order:stroke fill markers"/>
  <path d="m179.3 136.96h-20.724" style="paint-order:stroke fill markers"/>
 </g>
 <circle transform="scale(-1,1)" cx="-152.64" cy="170.14" r="1.875" fill="#05111f" style="paint-order:stroke fill markers"/>
 <circle transform="scale(-1,1)" cx="-170.89" cy="154.4" r="2.875" fill="#05111f" style="paint-order:stroke fill markers"/>
</svg>
